<svg width="125" height="26" viewBox="0 0 125 26" fill="none" xmlns="http://www.w3.org/2000/svg">
<path d="M7.71693 25.5H15.5899L22.8069 1.81583H15.5899L11.6534 13.6579L7.71693 25.5Z" fill="white"/>
<path d="M52.3307 9.14029V24.8421H58.8915V20.4406V1.15794C56.2672 2.64905 52.3307 6.39947 52.3307 9.14029Z" fill="white"/>
<path d="M70.045 24.8421L68.0767 19.5789C66.1085 20.8947 63.4841 20.8947 60.8598 20.8947L62.172 24.8421H70.045Z" fill="white"/>
<path d="M83.8228 24.8421H91.6958L98.9127 0.500045H91.6958L87.7593 13.329L83.8228 24.8421Z" fill="white"/>
<path d="M102.193 0.638163V25.5L108.754 25.5V0.638163H102.193Z" fill="white"/>
<path d="M113.347 24.8421H117.283L120.892 13.329L124.5 1.15794H117.283L113.347 13.6579V24.8421Z" fill="white"/>
<path d="M0.5 25.5V0.500045M0.5 0.500045L7.71693 25.5M0.5 0.500045H7.71693L11.6534 13.6579M7.71693 25.5H15.5899L22.8069 1.81583M7.71693 25.5L11.6534 13.6579M22.8069 1.81583H15.5899L11.6534 13.6579M22.8069 1.81583V25.5M33.9603 0.500045L26.7434 25.5H33.9603L41.1772 0.500045M33.9603 0.500045H41.1772M33.9603 0.500045L41.1772 25.5H49.0503L41.1772 0.500045M52.3307 24.8421C52.3307 24.8421 52.3307 13.0876 52.3307 9.14029M52.3307 24.8421H58.8915V20.4406M52.3307 24.8421V9.14029M52.3307 9.14029C52.3307 6.39947 56.2672 2.64905 58.8915 1.15794M58.8915 1.15794C58.8915 1.15794 59.5476 0.500045 62.172 0.500045C64.7963 0.500045 72.6693 2.47372 72.6693 11.0263C72.6693 14.9737 70.7011 17.6053 68.0767 19.5789M58.8915 1.15794V20.4406M58.8915 20.4406C60.2037 21.0984 60.2037 20.8947 60.8598 20.8947M60.8598 20.8947C63.4841 20.8947 66.1085 20.8947 68.0767 19.5789M60.8598 20.8947L62.172 24.8421H70.045L68.0767 19.5789M83.8228 24.8421L76.6058 0.500045H83.8228L87.7593 13.329M83.8228 24.8421H91.6958L98.9127 0.500045H91.6958L87.7593 13.329M83.8228 24.8421L87.7593 13.329M113.347 0.5V13.6579M113.347 13.6579V24.8421H117.283L120.892 13.329M113.347 13.6579L117.283 1.15794H124.5L120.892 13.329M120.892 13.329L124.5 25.5M102.193 0.638163V25.5L108.754 25.5V0.638163H102.193Z" stroke="white" stroke-width="0.4" stroke-linecap="round" stroke-linejoin="round"/>
</svg>
